<?xml version="1.0" encoding="utf-8"?>
<svg version="1.1" id="Layer_1" xmlns="http://www.w3.org/2000/svg" xmlns:xlink="http://www.w3.org/1999/xlink" x="0px" y="0px"
	 viewBox="0 0 160 90" style="enable-background:new 0 0 160 90;" xml:space="preserve">
<style type="text/css">
	.st0{fill:#0778D4;}
	.st1{fill:#FFFFFF;}
</style>
<rect style="fill:#0778D4;" width="160" height="90"/>
<g>
	<g>
		<path class="st1" d="M41.34,66.03c0,0,0.56-0.35,0.56-1.02c0-0.73-0.51-1.19-1.43-1.19h-2.26v4.16h1.31v-1.43h0.83
			c0.62,0.13,0.26,0.59,0.48,1.43c0,0,0.82-0.01,1.29-0.01c-0.27-0.2,0.16-1.41-0.45-1.8C41.55,66.11,41.81,66.26,41.34,66.03
			L41.34,66.03z M40.66,65.12c0.01,0.51-0.84,0.36-1.14,0.37c0.01-0.27,0-0.71,0-0.71C39.99,64.8,40.65,64.62,40.66,65.12
			L40.66,65.12z"/>
		<polygon class="st1" points="42.49,63.82 45.83,63.82 45.83,64.66 43.8,64.66 43.8,65.49 45.47,65.49 45.47,66.32 43.8,66.32
			43.8,67.15 45.94,67.15 45.94,67.99 42.49,67.99 42.49,63.82 		"/>
		<polygon class="st1" points="46.54,63.82 47.85,63.82 47.85,67.15 49.75,67.15 49.75,67.99 46.54,67.99 46.54,63.82 		"/>
		<polygon class="st1" points="50.11,63.82 51.42,63.82 51.42,67.99 50.11,67.99 50.11,63.82 		"/>
		<polygon class="st1" points="52.25,63.82 55.58,63.82 55.58,64.66 53.56,64.66 53.56,65.49 55.22,65.49 55.22,66.32 53.56,66.32
			53.56,67.15 55.7,67.15 55.7,67.99 52.25,67.99 52.25,63.82 		"/>
		<polygon class="st1" points="56.18,63.82 59.39,63.82 59.39,64.66 57.48,64.66 57.48,65.61 58.91,65.61 58.91,66.44 57.48,66.44
			57.48,67.99 56.18,67.99 56.18,63.82 		"/>
		<path class="st1" d="M61.61,16.3c-0.39-0.07-0.85-0.41-0.77-0.86c0.1-0.54,0.4-0.86,0.89-0.84c0.51,0.02,0.79,0.54,0.79,0.54
			L62.5,15.2h-0.12c0,0-0.47-0.36-0.69-0.25c-0.16,0.08-0.33,0.18-0.35,0.47c-0.03,0.32,0.25,0.52,0.53,0.52
			c0.28,0,0.58-0.23,0.58-0.23l0.06,0.03c0,0,0.01,0.01-0.01,0.15c-0.03,0.12-0.29,0.37-0.66,0.41l1.48,7.92l0,6.43h1.12
			c0,0,0.02,1.36-1.12,2.09l0,5.14h1.12c0,0,0.01,1.38-1.12,2.11l0,12.43c-0.35-1.51-1.5-3.42-3.21-5.12l-0.01-7.21
			c-1.24-0.69-1.1-2.21-1.1-2.21l1.11-0.01l-0.01-5c-1.24-0.69-1.1-2.21-1.1-2.21l1.11-0.01v-6.41L61.61,16.3L61.61,16.3L61.61,16.3
			z"/>
		<path class="st1" d="M35.45,16.33c0.47-0.13,0.42-0.16,0.55-0.32c0.08-0.1,0.09-0.25,0.09-0.25l-0.06-0.03c0,0-0.3,0.23-0.58,0.23
			c-0.28,0-0.52-0.15-0.53-0.52c-0.01-0.38,0.24-0.54,0.48-0.55c0.24-0.01,0.47,0.27,0.47,0.27l0.21,0.06l0.01-0.07
			c0,0-0.28-0.57-0.79-0.54c-0.4,0.02-0.82,0.15-0.89,0.84c-0.04,0.45,0.39,0.79,0.77,0.86l-1.48,7.92l0,6.43H32.6
			c0,0-0.02,1.36,1.12,2.09l0,5.14H32.6c0,0-0.01,1.38,1.12,2.11l0.02,12.05c0.65-1.67,1.48-3.04,3.19-4.74l0.01-7.21
			c1.24-0.69,1.1-2.21,1.1-2.21l-1.11-0.01l0.01-5c1.24-0.69,1.1-2.21,1.1-2.21l-1.11-0.01v-6.41L35.45,16.33L35.45,16.33
			L35.45,16.33z"/>
		<path class="st1" d="M48.64,43.55c0,0,0,8.23,0,8.33c-0.08,0-0.65,0-0.73,0c0-0.1,0-8.21,0-8.21h-0.77l-0.01,0
			c-4.42,1.47-5.84,5.32-6.52,7.17c-0.17,0.45-0.29,0.77-0.39,0.92c-0.05,0-0.71,0-0.82,0c0.72-2.68,2.3-6.24,5.73-8.11l-0.04-0.09
			c-5.99,2.39-8.93,4.92-10.83,9.31l-0.03,0.07h28.46l-0.03-0.07c-2.2-5.94-7.84-8.34-11.01-9.25l-0.2-0.06l-0.04,0.09
			c3.48,1.69,5.49,5.43,5.91,8.23c-0.1,0-0.57,0-0.62,0c-0.16-0.27-0.31-0.67-0.47-1.13c-0.72-1.97-1.94-5.26-6.79-7.19l-0.01,0
			H48.64L48.64,43.55z"/>
		<path class="st1" d="M48.69,43.6h0.71c6.03,2.4,6.42,6.92,7.26,8.33h0.71c-0.44-3.11-2.64-6.72-5.95-8.33
			c0.29,0.13,8.45,1.89,11.18,9.28H34.3c2.01-4.64,5.26-7.07,10.81-9.28c-3.15,1.73-4.9,4.93-5.77,8.21l0.91,0
			c0.57-0.71,1.39-6.26,6.9-8.09h0.71v8.21h0.83V43.6L48.69,43.6z"/>
		<path class="st1" d="M32.6,61.31c0.4,3.89,2.22,7.49,5.14,10.14c2.93,2.66,6.73,4.13,10.69,4.13c8.03,0,14.76-6.13,15.65-14.25
			l0.06-0.56l-31.6-0.01L32.6,61.31L32.6,61.31z M38.41,70.69c-2.59-2.35-4.25-5.5-4.74-8.93c1.08,0,28.23,0.01,29.32,0.01
			c-1.08,7.33-7.25,12.79-14.57,12.79C44.71,74.56,41.16,73.19,38.41,70.69L38.41,70.69z"/>
		<path class="st1" d="M40.52,69.08c1.81,4.03,4.64,6.34,7.77,6.34c3.17,0,5.98-2.29,7.72-6.3l-0.87-0.38
			c-1.61,3.69-4.04,5.72-6.85,5.72c-2.74,0-5.26-2.11-6.9-5.78L40.52,69.08L40.52,69.08z"/>
		<polygon class="st1" points="47.91,74.91 48.86,74.91 48.89,68.82 47.93,68.82 47.91,74.91 		"/>
		<path class="st1" d="M38.71,61.29l0,0.47c-0.01,0.38-0.01,0.81,0.13,1.49l0.93-0.2c-0.12-0.58-0.12-0.92-0.11-1.28l-0.01-0.54
			L38.71,61.29L38.71,61.29z"/>
		<path class="st1" d="M57.02,61.72c-0.03,0.42-0.05,0.72-0.22,1.2l0.89,0.33c0.22-0.61,0.25-1.03,0.28-1.47l0.01-0.18l-0.95-0.07
			L57.02,61.72L57.02,61.72z"/>
		<polygon class="st1" points="47.91,61.28 47.91,63.15 48.86,63.15 48.86,61.28 47.91,61.28 		"/>
		<path class="st1" d="M50.43,53.9v6.05h1.89c0,0,0-4.18,0-4.28c0.1,0,3.43,0,3.43,0c0.13,0,0.35,0.06,0.4,0.43c0,0,0,0.01,0,0.03
			c0,0.33,0,3.78,0,3.78v0.05h2.12v-3.98c0-0.84-0.51-2.07-1.6-2.07H50.43L50.43,53.9z"/>
		<path class="st1" d="M56.66,53.95c1.04,0,1.55,1.2,1.55,2.02v3.93h-2.02c0,0,0-2.68,0-3.81c-0.06-0.46-0.37-0.48-0.45-0.48
			c-0.53,0-1.82,0-3.48,0v4.28h-1.78v-5.95C50.81,53.95,53.91,53.95,56.66,53.95L56.66,53.95L56.66,53.95z"/>
		<path class="st1" d="M30.32,53.9v0.51l0.05,0c0.07,0,0.27,0.03,0.31,0.14c0,0.02,0.01,4.71,0.01,4.71c0,0.12-0.24,0.2-0.32,0.22
			l-0.04,0.01v0.45h2.84l0-0.48l-0.05,0c-0.01,0-0.27,0.01-0.29-0.19l0-4.71c0-0.16,0.3-0.22,0.3-0.22l0.04-0.01V53.9H30.32
			L30.32,53.9z"/>
		<path class="st1" d="M30.37,53.95h2.74v0.36c0,0-0.35,0.06-0.35,0.27v4.71c0.03,0.24,0.34,0.23,0.34,0.23l0,0.37h-2.74v-0.36
			c0,0,0.36-0.08,0.36-0.27l-0.01-4.73c-0.06-0.18-0.36-0.18-0.36-0.18V53.95L30.37,53.95z"/>
		<path class="st1" d="M33.89,53.9l0,0.05c0.02,0.31,0.01,0.37,0.01,0.45l-0.01,0.15c0,0.63,0.76,1.54,1.37,2.27
			c0.36,0.43,0.71,0.84,0.72,1.01c0.01,0.15-0.03,0.28-0.12,0.38c-0.13,0.14-0.37,0.22-0.66,0.22h-1.54l-0.01,1.53h2.67
			c0.49,0,1.01-0.23,1.37-0.6c0.33-0.34,0.5-0.77,0.48-1.2c-0.04-0.86-0.67-1.56-1.28-2.23c-0.59-0.65-1.15-1.26-1.11-1.96l0-0.05
			H33.89L33.89,53.9z"/>
		<path class="st1" d="M33.94,53.95h1.78c-0.08,1.46,2.32,2.52,2.39,4.19c0.04,0.98-0.89,1.76-1.8,1.76H33.7l0.01-1.43h1.49
			c0.46,0,0.86-0.21,0.83-0.65c-0.03-0.46-2.09-2.26-2.09-3.27C33.94,54.34,33.97,54.41,33.94,53.95L33.94,53.95L33.94,53.95z"/>
		<path class="st1" d="M38.41,53.9v6.05h4.62v-1.53c0,0-2.52,0-2.62,0c0-0.1,0-4.52,0-4.52H38.41L38.41,53.9z"/>
		<polygon class="st1" points="38.46,53.95 40.37,53.95 40.37,58.47 42.98,58.47 42.98,59.9 38.46,59.9 38.46,53.95 		"/>
		<path class="st1" d="M64.75,53.9c-0.53,0-3.19,0.15-3.26,3.02c-0.02,0.85,0.25,1.59,0.77,2.13c0.56,0.58,1.41,0.9,2.37,0.9h1.83
			v-1.53l-0.57-0.01c-0.27-0.01-0.53-0.01-0.78,0c-0.57-0.07-1.54-0.37-1.49-1.56c0.04-0.91,0.58-1.43,1.49-1.43h1.36V53.9H64.75
			L64.75,53.9z"/>
		<path class="st1" d="M64.75,53.95h1.67v1.43h-1.31c-0.9,0-1.5,0.52-1.54,1.48c-0.04,1.06,0.7,1.5,1.55,1.61
			c0.4-0.02,0.81,0.01,1.3,0.01v1.43h-1.78c-1.83,0-3.14-1.14-3.09-2.97C61.6,54.52,63.55,53.95,64.75,53.95L64.75,53.95
			L64.75,53.95z"/>
		<polygon class="st1" points="53.28,55.92 53.28,59.95 55.17,59.95 55.17,55.92 53.28,55.92 		"/>
		<polygon class="st1" points="53.33,55.97 55.12,55.97 55.12,59.9 53.33,59.9 53.33,55.97 		"/>
		<path class="st1" d="M58.52,53.9l0,0.51h0.05c0.07,0,0.27,0.03,0.31,0.14c0,0.02,0.01,4.71,0.01,4.71c0,0.12-0.24,0.2-0.32,0.22
			l-0.04,0.01v0.45h2.84l-0.01-0.46l-0.05,0c-0.01,0-0.27-0.01-0.29-0.21l0-4.71c0-0.17,0.3-0.22,0.3-0.22l0.04-0.01V53.9H58.52
			L58.52,53.9z"/>
		<path class="st1" d="M58.57,53.95h2.74v0.36c0,0-0.35,0.06-0.35,0.27v4.71c0.03,0.24,0.34,0.25,0.34,0.25l0.01,0.36h-2.74v-0.36
			c0,0,0.36-0.08,0.36-0.27l-0.01-4.73c-0.06-0.18-0.36-0.18-0.36-0.18V53.95L58.57,53.95z"/>
		<path class="st1" d="M45.88,53.9l0.32,0.79c0.06,0.15,0.1,0.27,0.27,0.64c-0.14,0-1.62,0-1.62,0l-1.68,4.44v0.18l2.28,0l0-0.05
			c0,0,0.01-0.15,0.09-0.31c0.06,0,2.1,0,2.18,0c0.02,0.07,0.06,0.22,0.12,0.33l0.01,0.03l2.43,0v-0.18l-2.28-5.87H45.88L45.88,53.9
			z M46.56,56.04c0.15,0.45,0.54,1.61,0.64,1.9c-0.12,0-1.06,0-1.17,0C46.1,57.67,46.42,56.55,46.56,56.04L46.56,56.04z"/>
		<path class="st1" d="M47.98,53.95h-2.02c0.39,0.92,0.23,0.63,0.59,1.43h-1.67l-1.67,4.4v0.12l2.18,0c0,0,0.01-0.17,0.11-0.36h2.25
			c0,0,0.04,0.21,0.12,0.36l2.35,0v-0.12L47.98,53.95L47.98,53.95z M45.96,57.99c0,0,0.5-1.74,0.59-2.14
			c0.02,0.11,0.71,2.14,0.71,2.14H45.96L45.96,57.99z"/>
		<path class="st1" d="M48.91,42.35v-0.73l-0.21-0.36l0-0.32c0.12-0.07,0.2-0.16,0.22-0.21c0.02-0.09,0.01-0.1,0.01-0.1l-0.04-0.02
			c0,0-0.2,0.16-0.39,0.16c-0.19,0-0.35-0.1-0.36-0.35c-0.01-0.25,0.16-0.36,0.32-0.37c0.16-0.01,0.38,0.22,0.38,0.22h0.08
			l0.01-0.05c0,0-0.19-0.38-0.53-0.36c-0.27,0.02-0.6,0.22-0.6,0.57c0,0.23,0.16,0.42,0.34,0.52v0.32l-0.2,0.39v0.72
			C41.24,43.6,55.74,43.42,48.91,42.35L48.91,42.35L48.91,42.35z"/>
	</g>
	<path class="st1" d="M71.23,62.34c-0.3,0.06-0.51,0.2-0.51,0.55v1.34c0,0.34,0.2,0.49,0.51,0.43l2.75-0.51v8.93h-2.75
		c-0.34,0-0.51,0.12-0.51,0.49v1.28c0,0.36,0.16,0.51,0.51,0.51h8.14c0.36,0,0.51-0.14,0.51-0.51v-1.28c0-0.36-0.14-0.49-0.51-0.49
		h-2.65V61.91c0-0.47-0.26-0.53-0.49-0.49L71.23,62.34L71.23,62.34z M87.34,65.09v1.21c0,0.99-0.59,1.48-1.86,1.48
		c-1.34,0-1.92-0.49-1.92-1.5v-1.17c0-1.01,0.59-1.52,1.92-1.52C86.77,63.59,87.34,64.1,87.34,65.09L87.34,65.09z M90.05,64.71
		c0-1.7-1.05-3.3-4.57-3.3c-3.54,0-4.61,1.6-4.61,3.3v1.96c0,1.7,1.13,3.32,4.23,3.32c0.99,0,1.74-0.24,2.25-0.61v2.45
		c0,0.95-0.53,1.48-1.84,1.48c-1.34,0-1.84-0.53-1.84-1.48v-0.14c0-0.36-0.12-0.51-0.47-0.51h-1.68c-0.36,0-0.51,0.14-0.51,0.51
		v0.53c0,1.64,0.97,3.28,4.49,3.28c3.52,0,4.55-1.64,4.55-3.28V64.71L90.05,64.71z M92.08,66.04c0,0.99,0.47,1.72,1.52,2.15
		c-1.17,0.43-1.74,1.15-1.74,2.17v1.84c0,1.7,1.05,3.3,4.57,3.3c3.54,0,4.59-1.6,4.59-3.3v-1.84c0-1.01-0.57-1.74-1.74-2.17
		c1.07-0.43,1.52-1.15,1.52-2.15v-1.34c0-1.7-0.83-3.3-4.37-3.3c-3.52,0-4.35,1.6-4.35,3.3V66.04L92.08,66.04z M98.15,65.62
		c0,1.01-0.45,1.52-1.72,1.52c-1.28,0-1.68-0.51-1.68-1.52v-0.51c0-1.01,0.4-1.52,1.68-1.52c1.28,0,1.72,0.51,1.72,1.52V65.62
		L98.15,65.62z M98.33,71.79c0,1.01-0.57,1.52-1.9,1.52c-1.32,0-1.86-0.51-1.86-1.52v-1.01c0-1.01,0.55-1.48,1.86-1.48
		c1.34,0,1.9,0.47,1.9,1.48V71.79L98.33,71.79z M107.36,62.09c0.1-0.32,0-0.53-0.36-0.53h-1.76c-0.36,0-0.53,0.18-0.63,0.53
		l-2.25,7.25c-0.06,0.18-0.12,0.4-0.12,0.67v1.09c0,0.36,0.16,0.49,0.53,0.49h6.15v3.22c0,0.36,0.14,0.53,0.51,0.53h1.76
		c0.34,0,0.49-0.16,0.49-0.53V62.09c0-0.36-0.14-0.53-0.49-0.53h-1.76c-0.36,0-0.51,0.16-0.51,0.53v7.23h-3.85L107.36,62.09
		L107.36,62.09z"/>
	<path class="st1" d="M77.56,49.88c0,0.34,0.12,0.51,0.49,0.51h1.7c0.34,0,0.49-0.16,0.49-0.51v-0.83c0-1.7-1.11-3.3-4.63-3.3
		c-3.58,0-4.63,1.6-4.63,3.3v1.17c0,1.21,0.89,2.25,1.86,2.61l3.14,1.19c0.77,0.28,1.72,0.63,1.72,1.5v0.65
		c0,0.99-0.81,1.46-2.17,1.46c-1.36,0-2.15-0.47-2.15-1.46v-0.91c0-0.36-0.12-0.53-0.47-0.53h-1.7c-0.36,0-0.51,0.16-0.51,0.53v1.28
		c0,1.7,1.23,3.3,4.84,3.3c3.6,0,4.82-1.6,4.82-3.3v-1.56c0-1.5-1.01-2.43-2.39-2.91l-3.52-1.25c-0.32-0.12-0.83-0.38-0.83-1.09
		v-0.3c0-0.99,0.67-1.46,1.98-1.46c1.32,0,1.96,0.47,1.96,1.46V49.88L77.56,49.88z M85.05,46.44c0-0.36-0.12-0.53-0.49-0.53h-1.76
		c-0.36,0-0.49,0.16-0.49,0.53v12.71c0,0.36,0.12,0.53,0.49,0.53h1.76c0.36,0,0.49-0.16,0.49-0.53V46.44L85.05,46.44z M97.3,46.42
		c0-0.34-0.12-0.51-0.49-0.51h-1.6c-0.36,0-0.49,0.16-0.49,0.51v8.1c-0.16-0.38-0.45-0.99-0.69-1.42l-4.07-6.98
		c-0.08-0.14-0.2-0.2-0.43-0.2h-1.6c-0.36,0-0.49,0.16-0.49,0.51v12.75c0,0.34,0.12,0.51,0.49,0.51h1.6c0.36,0,0.49-0.16,0.49-0.51
		v-8.1c0.2,0.51,0.51,1.15,0.81,1.66l3.91,6.7c0.1,0.18,0.2,0.24,0.47,0.24h1.6c0.36,0,0.49-0.16,0.49-0.51V46.42L97.3,46.42z
		 M108.99,55.28c0-0.36-0.12-0.51-0.47-0.51h-1.68c-0.36,0-0.51,0.14-0.51,0.51v0.77c0,1.01-0.71,1.52-2.06,1.52
		c-1.36,0-2.04-0.51-2.04-1.52v-6.52c0-1.01,0.69-1.52,2.04-1.52c1.36,0,2.06,0.51,2.06,1.52v0.49c0,0.36,0.14,0.51,0.51,0.51h1.68
		c0.34,0,0.47-0.14,0.47-0.51v-0.97c0-1.7-1.09-3.3-4.76-3.3c-3.66,0-4.76,1.6-4.76,3.3v7.49c0,1.7,1.09,3.3,4.76,3.3
		c3.66,0,4.76-1.6,4.76-3.3V55.28L108.99,55.28z M118.4,59.67c0.36,0,0.51-0.14,0.51-0.51v-1.28c0-0.36-0.14-0.49-0.51-0.49h-4.88
		v-3.76h4.33c0.36,0,0.53-0.14,0.53-0.49v-1.21c0-0.36-0.16-0.49-0.53-0.49h-4.33v-3.28h4.67c0.34,0,0.51-0.14,0.51-0.51V46.4
		c0-0.36-0.16-0.49-0.51-0.49h-6.92c-0.36,0-0.49,0.16-0.49,0.53v12.71c0,0.36,0.12,0.53,0.49,0.53H118.4L118.4,59.67z"/>
	<path class="st1" d="M73.98,30.78c0-0.36-0.12-0.53-0.49-0.53h-1.76c-0.36,0-0.49,0.16-0.49,0.53v12.71c0,0.34,0.12,0.53,0.43,0.53
		h6.82c0.34,0,0.51-0.14,0.51-0.51v-1.28c0-0.36-0.16-0.49-0.51-0.49h-4.51V30.78L73.98,30.78z M82.99,30.78
		c0-0.36-0.12-0.53-0.49-0.53h-1.76c-0.36,0-0.49,0.16-0.49,0.53v12.71c0,0.36,0.12,0.53,0.49,0.53h1.76c0.36,0,0.49-0.16,0.49-0.53
		V30.78L82.99,30.78z M90.48,44.01c0.36,0,0.53-0.16,0.63-0.51l3.78-12.75c0.1-0.32-0.02-0.51-0.36-0.51h-1.78
		c-0.34,0-0.49,0.18-0.59,0.51l-1.98,6.9c-0.18,0.67-0.4,1.9-0.53,2.91c-0.12-1.09-0.28-2.25-0.49-2.93l-1.96-6.88
		c-0.1-0.32-0.24-0.51-0.59-0.51h-1.94c-0.34,0-0.47,0.18-0.36,0.51l3.78,12.75c0.1,0.34,0.26,0.51,0.63,0.51H90.48L90.48,44.01z
		 M103.83,44.01c0.36,0,0.51-0.14,0.51-0.51v-1.28c0-0.36-0.14-0.49-0.51-0.49h-4.88v-3.76h4.33c0.36,0,0.53-0.14,0.53-0.49v-1.21
		c0-0.36-0.16-0.49-0.53-0.49h-4.33v-3.28h4.68c0.34,0,0.51-0.14,0.51-0.51v-1.28c0-0.36-0.16-0.49-0.51-0.49h-6.92
		c-0.36,0-0.49,0.16-0.49,0.53v12.71c0,0.36,0.12,0.53,0.49,0.53H103.83L103.83,44.01z M112.48,34.22c0,0.34,0.12,0.51,0.49,0.51
		h1.7c0.34,0,0.49-0.16,0.49-0.51v-0.83c0-1.7-1.11-3.3-4.63-3.3c-3.58,0-4.63,1.6-4.63,3.3v1.17c0,1.21,0.89,2.25,1.86,2.61
		l3.14,1.19c0.77,0.28,1.72,0.63,1.72,1.5v0.65c0,0.99-0.81,1.46-2.17,1.46c-1.36,0-2.15-0.47-2.15-1.46V39.6
		c0-0.36-0.12-0.53-0.47-0.53h-1.7c-0.36,0-0.51,0.16-0.51,0.53v1.28c0,1.7,1.23,3.3,4.84,3.3s4.82-1.6,4.82-3.3v-1.56
		c0-1.5-1.01-2.43-2.39-2.91l-3.52-1.25c-0.32-0.12-0.83-0.38-0.83-1.09v-0.3c0-0.99,0.67-1.46,1.98-1.46
		c1.32,0,1.96,0.47,1.96,1.46V34.22L112.48,34.22z"/>
	<path class="st1" d="M77.56,18.56c0,0.34,0.12,0.51,0.49,0.51h1.7c0.34,0,0.49-0.16,0.49-0.51v-0.83c0-1.7-1.11-3.3-4.63-3.3
		c-3.58,0-4.63,1.6-4.63,3.3v1.17c0,1.21,0.89,2.25,1.86,2.61l3.14,1.19c0.77,0.28,1.72,0.63,1.72,1.5v0.65
		c0,0.99-0.81,1.46-2.17,1.46c-1.36,0-2.15-0.47-2.15-1.46v-0.91c0-0.36-0.12-0.53-0.47-0.53h-1.7c-0.36,0-0.51,0.16-0.51,0.53v1.28
		c0,1.7,1.23,3.3,4.84,3.3c3.6,0,4.82-1.6,4.82-3.3v-1.56c0-1.5-1.01-2.43-2.39-2.91l-3.52-1.25c-0.32-0.12-0.83-0.38-0.83-1.09
		v-0.3c0-0.99,0.67-1.46,1.98-1.46c1.32,0,1.96,0.47,1.96,1.46V18.56L77.56,18.56z M87.44,23.21h-2.57l0.69-2.27
		c0.3-0.97,0.57-3.14,0.63-3.68c0.04,0.47,0.24,2.57,0.59,3.7L87.44,23.21L87.44,23.21z M85.36,14.59c-0.36,0-0.53,0.16-0.63,0.51
		l-3.78,12.75c-0.1,0.32,0.02,0.51,0.36,0.51h1.66c0.36,0,0.49-0.18,0.59-0.51l0.71-2.47h3.76l0.73,2.47
		c0.1,0.32,0.22,0.51,0.59,0.51h1.82c0.34,0,0.47-0.18,0.36-0.51L87.74,15.1c-0.1-0.34-0.26-0.51-0.63-0.51H85.36L85.36,14.59z
		 M97.26,28.35c0.36,0,0.53-0.16,0.63-0.51l3.78-12.75c0.1-0.32-0.02-0.51-0.36-0.51h-1.78c-0.34,0-0.49,0.18-0.59,0.51L96.95,22
		c-0.18,0.67-0.4,1.9-0.53,2.91c-0.12-1.09-0.28-2.25-0.49-2.93l-1.96-6.88c-0.1-0.32-0.24-0.51-0.59-0.51h-1.94
		c-0.34,0-0.47,0.18-0.36,0.51l3.78,12.75c0.1,0.34,0.26,0.51,0.63,0.51H97.26L97.26,28.35z M105.74,15.12
		c0-0.36-0.12-0.53-0.49-0.53h-1.76c-0.36,0-0.49,0.16-0.49,0.53v12.71c0,0.36,0.12,0.53,0.49,0.53h1.76c0.36,0,0.49-0.16,0.49-0.53
		V15.12L105.74,15.12z M117.98,15.1c0-0.34-0.12-0.51-0.49-0.51h-1.6c-0.36,0-0.49,0.16-0.49,0.51v8.1
		c-0.16-0.38-0.45-0.99-0.69-1.42l-4.07-6.98c-0.08-0.14-0.2-0.2-0.43-0.2h-1.6c-0.36,0-0.49,0.16-0.49,0.51v12.75
		c0,0.34,0.12,0.51,0.49,0.51h1.6c0.36,0,0.49-0.16,0.49-0.51v-8.1c0.2,0.51,0.51,1.15,0.81,1.66l3.91,6.7
		c0.1,0.18,0.2,0.24,0.47,0.24h1.6c0.36,0,0.49-0.16,0.49-0.51V15.1L117.98,15.1z M125.04,21.13c-0.36,0-0.53,0.12-0.53,0.49v1.3
		c0,0.36,0.16,0.49,0.53,0.49h1.98v1.36c0,0.99-0.71,1.5-2.06,1.5s-2.04-0.51-2.04-1.52v-6.52c0-1.01,0.69-1.52,2.04-1.52
		s2.06,0.51,2.06,1.52v0.32c0,0.34,0.14,0.51,0.51,0.51h1.68c0.34,0,0.47-0.16,0.47-0.51v-0.81c0-1.7-1.09-3.3-4.76-3.3
		s-4.76,1.6-4.76,3.3v7.49c0,1.7,1.09,3.3,4.76,3.3s4.76-1.6,4.76-3.3v-3.6c0-0.36-0.16-0.49-0.51-0.49H125.04L125.04,21.13z"/>
</g>
</svg>
